<svg xmlns="http://www.w3.org/2000/svg" xmlns:xlink="http://www.w3.org/1999/xlink" width="100" zoomAndPan="magnify" viewBox="0 0 75 74.999997" height="100" preserveAspectRatio="xMidYMid meet" version="1.0"><defs><g/><clipPath id="17067f81b9"><path d="M 20.3125 47.769531 L 35.492188 47.769531 L 35.492188 62.949219 L 20.3125 62.949219 Z M 20.3125 47.769531 " clip-rule="nonzero"/></clipPath><clipPath id="247761722e"><path d="M 27.902344 47.769531 C 23.710938 47.769531 20.3125 51.167969 20.3125 55.359375 C 20.3125 59.550781 23.710938 62.949219 27.902344 62.949219 C 32.09375 62.949219 35.492188 59.550781 35.492188 55.359375 C 35.492188 51.167969 32.09375 47.769531 27.902344 47.769531 Z M 27.902344 47.769531 " clip-rule="nonzero"/></clipPath><clipPath id="b95fcb809b"><path d="M 0.3125 0.769531 L 15.492188 0.769531 L 15.492188 15.949219 L 0.3125 15.949219 Z M 0.3125 0.769531 " clip-rule="nonzero"/></clipPath><clipPath id="0f048418c1"><path d="M 7.902344 0.769531 C 3.710938 0.769531 0.3125 4.167969 0.3125 8.359375 C 0.3125 12.550781 3.710938 15.949219 7.902344 15.949219 C 12.09375 15.949219 15.492188 12.550781 15.492188 8.359375 C 15.492188 4.167969 12.09375 0.769531 7.902344 0.769531 Z M 7.902344 0.769531 " clip-rule="nonzero"/></clipPath><clipPath id="e02f2b8e2d"><rect x="0" width="16" y="0" height="16"/></clipPath><clipPath id="2f50df6b82"><path d="M 20.3125 47.769531 L 35.3125 47.769531 L 35.3125 62.769531 L 20.3125 62.769531 Z M 20.3125 47.769531 " clip-rule="nonzero"/></clipPath><clipPath id="d4f6aafd72"><path d="M 27.902344 47.769531 C 23.710938 47.769531 20.3125 51.167969 20.3125 55.359375 C 20.3125 59.550781 23.710938 62.945312 27.902344 62.945312 C 32.09375 62.945312 35.488281 59.550781 35.488281 55.359375 C 35.488281 51.167969 32.09375 47.769531 27.902344 47.769531 Z M 27.902344 47.769531 " clip-rule="nonzero"/></clipPath><clipPath id="5a1637a179"><path d="M 39.234375 48.117188 L 54.410156 48.117188 L 54.410156 63.292969 L 39.234375 63.292969 Z M 39.234375 48.117188 " clip-rule="nonzero"/></clipPath><clipPath id="7e0c981e17"><path d="M 46.824219 48.117188 C 42.632812 48.117188 39.234375 51.511719 39.234375 55.703125 C 39.234375 59.894531 42.632812 63.292969 46.824219 63.292969 C 51.011719 63.292969 54.410156 59.894531 54.410156 55.703125 C 54.410156 51.511719 51.011719 48.117188 46.824219 48.117188 Z M 46.824219 48.117188 " clip-rule="nonzero"/></clipPath><clipPath id="45204b81f9"><path d="M 0.234375 0.117188 L 15.410156 0.117188 L 15.410156 15.292969 L 0.234375 15.292969 Z M 0.234375 0.117188 " clip-rule="nonzero"/></clipPath><clipPath id="286df1e347"><path d="M 7.824219 0.117188 C 3.632812 0.117188 0.234375 3.511719 0.234375 7.703125 C 0.234375 11.894531 3.632812 15.292969 7.824219 15.292969 C 12.011719 15.292969 15.410156 11.894531 15.410156 7.703125 C 15.410156 3.511719 12.011719 0.117188 7.824219 0.117188 Z M 7.824219 0.117188 " clip-rule="nonzero"/></clipPath><clipPath id="949392af73"><rect x="0" width="16" y="0" height="16"/></clipPath><clipPath id="a2beeeb043"><path d="M 39.234375 48.117188 L 54.234375 48.117188 L 54.234375 63.117188 L 39.234375 63.117188 Z M 39.234375 48.117188 " clip-rule="nonzero"/></clipPath><clipPath id="d209d4360c"><path d="M 46.820312 48.117188 C 42.632812 48.117188 39.234375 51.511719 39.234375 55.703125 C 39.234375 59.894531 42.632812 63.292969 46.820312 63.292969 C 51.011719 63.292969 54.410156 59.894531 54.410156 55.703125 C 54.410156 51.511719 51.011719 48.117188 46.820312 48.117188 Z M 46.820312 48.117188 " clip-rule="nonzero"/></clipPath><clipPath id="b43b8cd4c8"><path d="M 17.933594 42.675781 L 57.066406 42.675781 L 57.066406 56.210938 L 17.933594 56.210938 Z M 17.933594 42.675781 " clip-rule="nonzero"/></clipPath><clipPath id="b72e72ebea"><path d="M 0.933594 0.675781 L 40.066406 0.675781 L 40.066406 14.210938 L 0.933594 14.210938 Z M 0.933594 0.675781 " clip-rule="nonzero"/></clipPath><clipPath id="153882254d"><rect x="0" width="41" y="0" height="15"/></clipPath><clipPath id="8b5711f350"><path d="M 17.945312 42.675781 L 56.933594 42.675781 L 56.933594 56.175781 L 17.945312 56.175781 Z M 17.945312 42.675781 " clip-rule="nonzero"/></clipPath><clipPath id="08a315e0a7"><path d="M 16.339844 39.855469 L 58.359375 39.855469 L 58.359375 44.207031 L 16.339844 44.207031 Z M 16.339844 39.855469 " clip-rule="nonzero"/></clipPath><clipPath id="1da80eebbe"><path d="M 0.339844 0.855469 L 42.359375 0.855469 L 42.359375 5.207031 L 0.339844 5.207031 Z M 0.339844 0.855469 " clip-rule="nonzero"/></clipPath><clipPath id="e781b422c0"><rect x="0" width="43" y="0" height="6"/></clipPath><clipPath id="f30f6566d9"><path d="M 16.339844 39.859375 L 58.339844 39.859375 L 58.339844 44.203125 L 16.339844 44.203125 Z M 16.339844 39.859375 " clip-rule="nonzero"/></clipPath><clipPath id="855962c336"><path d="M 19.921875 11.707031 L 54.875 11.707031 L 54.875 20.195312 L 19.921875 20.195312 Z M 19.921875 11.707031 " clip-rule="nonzero"/></clipPath><clipPath id="68f4fc7ae3"><path d="M 20.671875 11.707031 L 54.097656 11.707031 C 54.296875 11.707031 54.488281 11.785156 54.628906 11.925781 C 54.769531 12.066406 54.847656 12.257812 54.847656 12.457031 L 54.847656 19.445312 C 54.847656 19.644531 54.769531 19.835938 54.628906 19.976562 C 54.488281 20.117188 54.296875 20.195312 54.097656 20.195312 L 20.671875 20.195312 C 20.472656 20.195312 20.28125 20.117188 20.140625 19.976562 C 20 19.835938 19.921875 19.644531 19.921875 19.445312 L 19.921875 12.457031 C 19.921875 12.257812 20 12.066406 20.140625 11.925781 C 20.28125 11.785156 20.472656 11.707031 20.671875 11.707031 Z M 20.671875 11.707031 " clip-rule="nonzero"/></clipPath><clipPath id="44c2d75462"><path d="M 0.921875 0.707031 L 35.875 0.707031 L 35.875 9.195312 L 0.921875 9.195312 Z M 0.921875 0.707031 " clip-rule="nonzero"/></clipPath><clipPath id="f89e8092b3"><path d="M 1.671875 0.707031 L 35.097656 0.707031 C 35.296875 0.707031 35.488281 0.785156 35.628906 0.925781 C 35.769531 1.066406 35.847656 1.257812 35.847656 1.457031 L 35.847656 8.445312 C 35.847656 8.644531 35.769531 8.835938 35.628906 8.976562 C 35.488281 9.117188 35.296875 9.195312 35.097656 9.195312 L 1.671875 9.195312 C 1.472656 9.195312 1.28125 9.117188 1.140625 8.976562 C 1 8.835938 0.921875 8.644531 0.921875 8.445312 L 0.921875 1.457031 C 0.921875 1.257812 1 1.066406 1.140625 0.925781 C 1.28125 0.785156 1.472656 0.707031 1.671875 0.707031 Z M 1.671875 0.707031 " clip-rule="nonzero"/></clipPath><clipPath id="3f1880b47b"><rect x="0" width="36" y="0" height="10"/></clipPath><clipPath id="7670a9075d"><path d="M 19.929688 11.707031 L 55 11.707031 L 55 19.957031 L 19.929688 19.957031 Z M 19.929688 11.707031 " clip-rule="nonzero"/></clipPath><clipPath id="9a2dd29878"><path d="M 20.679688 11.707031 L 54.085938 11.707031 C 54.285156 11.707031 54.476562 11.785156 54.617188 11.925781 C 54.757812 12.066406 54.835938 12.257812 54.835938 12.457031 L 54.835938 19.441406 C 54.835938 19.640625 54.757812 19.832031 54.617188 19.972656 C 54.476562 20.113281 54.285156 20.191406 54.085938 20.191406 L 20.679688 20.191406 C 20.480469 20.191406 20.292969 20.113281 20.152344 19.972656 C 20.011719 19.832031 19.929688 19.640625 19.929688 19.441406 L 19.929688 12.457031 C 19.929688 12.257812 20.011719 12.066406 20.152344 11.925781 C 20.292969 11.785156 20.480469 11.707031 20.679688 11.707031 Z M 20.679688 11.707031 " clip-rule="nonzero"/></clipPath><clipPath id="0ebfa4e8c6"><path d="M 15.429688 15.125 L 59.300781 15.125 L 59.300781 28.335938 L 15.429688 28.335938 Z M 15.429688 15.125 " clip-rule="nonzero"/></clipPath><clipPath id="54f8a4d8b2"><path d="M 20.285156 15.125 L 54.417969 15.125 L 59.273438 28.335938 L 15.429688 28.335938 Z M 20.285156 15.125 " clip-rule="nonzero"/></clipPath><clipPath id="58ac411782"><path d="M 0.429688 0.125 L 44.28125 0.125 L 44.28125 13.335938 L 0.429688 13.335938 Z M 0.429688 0.125 " clip-rule="nonzero"/></clipPath><clipPath id="2c92925e95"><path d="M 5.285156 0.125 L 39.417969 0.125 L 44.273438 13.335938 L 0.429688 13.335938 Z M 5.285156 0.125 " clip-rule="nonzero"/></clipPath><clipPath id="58abe0b3ce"><rect x="0" width="45" y="0" height="14"/></clipPath><clipPath id="8c0eaf9cb8"><path d="M 15.4375 15.125 L 58.929688 15.125 L 58.929688 28.46875 L 15.4375 28.46875 Z M 15.4375 15.125 " clip-rule="nonzero"/></clipPath><clipPath id="038cdafc08"><path d="M 20.289062 15.125 L 54.410156 15.125 L 59.261719 28.332031 L 15.4375 28.332031 Z M 20.289062 15.125 " clip-rule="nonzero"/></clipPath><clipPath id="8c49f5dd8b"><path d="M 66 4 L 72.921875 4 L 72.921875 14 L 66 14 Z M 66 4 " clip-rule="nonzero"/></clipPath><clipPath id="528a65630a"><rect x="0" width="73" y="0" height="18"/></clipPath></defs><g clip-path="url(#17067f81b9)"><g clip-path="url(#247761722e)"><g transform="matrix(1, 0, 0, 1, 20, 47)"><g clip-path="url(#e02f2b8e2d)"><g clip-path="url(#b95fcb809b)"><g clip-path="url(#0f048418c1)"><path fill="#ffffff" d="M 0.3125 0.769531 L 15.492188 0.769531 L 15.492188 15.949219 L 0.3125 15.949219 Z M 0.3125 0.769531 " fill-opacity="1" fill-rule="nonzero"/></g></g></g></g></g></g><g clip-path="url(#2f50df6b82)"><g clip-path="url(#d4f6aafd72)"><path stroke-linecap="butt" transform="matrix(0.75, 0, 0, 0.75, 20.31407, 47.771198)" fill="none" stroke-linejoin="miter" d="M 10.117699 -0.00222273 C 4.529157 -0.00222273 -0.00209365 4.529028 -0.00209365 10.11757 C -0.00209365 15.706112 4.529157 20.232154 10.117699 20.232154 C 15.706241 20.232154 20.232283 15.706112 20.232283 10.11757 C 20.232283 4.529028 15.706241 -0.00222273 10.117699 -0.00222273 Z M 10.117699 -0.00222273 " stroke="#000000" stroke-width="4" stroke-opacity="1" stroke-miterlimit="4"/></g></g><g clip-path="url(#5a1637a179)"><g clip-path="url(#7e0c981e17)"><g transform="matrix(1, 0, 0, 1, 39, 48)"><g clip-path="url(#949392af73)"><g clip-path="url(#45204b81f9)"><g clip-path="url(#286df1e347)"><path fill="#ffffff" d="M 0.234375 0.117188 L 15.410156 0.117188 L 15.410156 15.292969 L 0.234375 15.292969 Z M 0.234375 0.117188 " fill-opacity="1" fill-rule="nonzero"/></g></g></g></g></g></g><g clip-path="url(#a2beeeb043)"><g clip-path="url(#d209d4360c)"><path stroke-linecap="butt" transform="matrix(0.75, 0, 0, 0.75, 39.234285, 48.115769)" fill="none" stroke-linejoin="miter" d="M 10.114704 0.00189177 C 4.53137 0.00189177 0.000119552 4.527934 0.000119552 10.116476 C 0.000119552 15.705018 4.53137 20.236268 10.114704 20.236268 C 15.703246 20.236268 20.234496 15.705018 20.234496 10.116476 C 20.234496 4.527934 15.703246 0.00189177 10.114704 0.00189177 Z M 10.114704 0.00189177 " stroke="#000000" stroke-width="4" stroke-opacity="1" stroke-miterlimit="4"/></g></g><path stroke-linecap="butt" transform="matrix(0.527242, -0.5334, 0.5334, 0.527242, 41.758745, 60.292242)" fill="none" stroke-linejoin="miter" d="M 0.0028939 0.500698 L 9.096014 0.498254 " stroke="#000000" stroke-width="1" stroke-opacity="1" stroke-miterlimit="4"/><path stroke-linecap="butt" transform="matrix(0, -0.75, 0.75, 0, 46.443221, 62.435173)" fill="none" stroke-linejoin="miter" d="M 0.0021058 0.49758 L 8.981273 0.49758 " stroke="#000000" stroke-width="1" stroke-opacity="1" stroke-miterlimit="4"/><path stroke-linecap="butt" transform="matrix(-0.534776, -0.525847, 0.525847, -0.534776, 51.488661, 60.821764)" fill="none" stroke-linejoin="miter" d="M 0.00121494 0.498222 L 9.227074 0.498552 " stroke="#000000" stroke-width="1" stroke-opacity="1" stroke-miterlimit="4"/><g clip-path="url(#b43b8cd4c8)"><g transform="matrix(1, 0, 0, 1, 17, 42)"><g clip-path="url(#153882254d)"><g clip-path="url(#b72e72ebea)"><path fill="#ffffff" d="M 0.933594 0.675781 L 40.054688 0.675781 L 40.054688 14.210938 L 0.933594 14.210938 Z M 0.933594 0.675781 " fill-opacity="1" fill-rule="nonzero"/></g></g></g></g><g clip-path="url(#8b5711f350)"><path stroke-linecap="butt" transform="matrix(0.75, 0, 0, 0.75, 17.94501, 42.67698)" fill="none" stroke-linejoin="miter" d="M 0.000403607 -0.00159875 L 52.141033 -0.00159875 L 52.141033 18.029653 L 0.000403607 18.029653 Z M 0.000403607 -0.00159875 " stroke="#000000" stroke-width="4" stroke-opacity="1" stroke-miterlimit="4"/></g><g clip-path="url(#08a315e0a7)"><g transform="matrix(1, 0, 0, 1, 16, 39)"><g clip-path="url(#e781b422c0)"><g clip-path="url(#1da80eebbe)"><path fill="#ffffff" d="M 0.339844 0.855469 L 42.359375 0.855469 L 42.359375 5.207031 L 0.339844 5.207031 Z M 0.339844 0.855469 " fill-opacity="1" fill-rule="nonzero"/></g></g></g></g><g clip-path="url(#f30f6566d9)"><path stroke-linecap="butt" transform="matrix(0.75, 0, 0, 0.75, 16.340499, 39.85768)" fill="none" stroke-linejoin="miter" d="M -0.000873407 0.00225981 L 56.01476 0.00225981 L 56.01476 5.793927 L -0.000873407 5.793927 Z M -0.000873407 0.00225981 " stroke="#000000" stroke-width="4" stroke-opacity="1" stroke-miterlimit="4"/></g><path stroke-linecap="butt" transform="matrix(0.527242, -0.5334, 0.5334, 0.527242, 22.83853, 59.947669)" fill="none" stroke-linejoin="miter" d="M 0.000557607 0.499895 L 9.097339 0.501156 " stroke="#000000" stroke-width="1" stroke-opacity="1" stroke-miterlimit="4"/><path stroke-linecap="butt" transform="matrix(0, -0.75, 0.75, 0, 27.523009, 62.090605)" fill="none" stroke-linejoin="miter" d="M 0.00101517 0.500571 L 8.980183 0.500571 " stroke="#000000" stroke-width="1" stroke-opacity="1" stroke-miterlimit="4"/><path stroke-linecap="butt" transform="matrix(-0.534776, -0.525847, 0.525847, -0.534776, 32.568445, 60.477196)" fill="none" stroke-linejoin="miter" d="M -0.0016865 0.499546 L 9.231538 0.499938 " stroke="#000000" stroke-width="1" stroke-opacity="1" stroke-miterlimit="4"/><g clip-path="url(#855962c336)"><g clip-path="url(#68f4fc7ae3)"><g transform="matrix(1, 0, 0, 1, 19, 11)"><g clip-path="url(#3f1880b47b)"><g clip-path="url(#44c2d75462)"><g clip-path="url(#f89e8092b3)"><path fill="#ffffff" d="M 0.921875 0.707031 L 35.84375 0.707031 L 35.84375 9.195312 L 0.921875 9.195312 Z M 0.921875 0.707031 " fill-opacity="1" fill-rule="nonzero"/></g></g></g></g></g></g><g clip-path="url(#7670a9075d)"><g clip-path="url(#9a2dd29878)"><path stroke-linecap="butt" transform="matrix(0.75, 0, 0, 0.75, 19.931285, 11.707447)" fill="none" stroke-linejoin="miter" d="M 0.99787 -0.000553912 L 45.539538 -0.000553912 C 45.805163 -0.000553912 46.060371 0.103613 46.247871 0.291113 C 46.435371 0.478613 46.539538 0.733821 46.539538 0.999446 L 46.539538 10.311946 C 46.539538 10.577571 46.435371 10.83278 46.247871 11.02028 C 46.060371 11.20778 45.805163 11.311946 45.539538 11.311946 L 0.99787 11.311946 C 0.732245 11.311946 0.482245 11.20778 0.294745 11.02028 C 0.107245 10.83278 -0.00212956 10.577571 -0.00212956 10.311946 L -0.00212956 0.999446 C -0.00212956 0.733821 0.107245 0.478613 0.294745 0.291113 C 0.482245 0.103613 0.732245 -0.000553912 0.99787 -0.000553912 Z M 0.99787 -0.000553912 " stroke="#000000" stroke-width="4" stroke-opacity="1" stroke-miterlimit="4"/></g></g><g clip-path="url(#0ebfa4e8c6)"><g clip-path="url(#54f8a4d8b2)"><g transform="matrix(1, 0, 0, 1, 15, 15)"><g clip-path="url(#58abe0b3ce)"><g clip-path="url(#58ac411782)"><g clip-path="url(#2c92925e95)"><path fill="#ffffff" d="M 0.429688 0.125 L 44.246094 0.125 L 44.246094 13.335938 L 0.429688 13.335938 Z M 0.429688 0.125 " fill-opacity="1" fill-rule="nonzero"/></g></g></g></g></g></g><g clip-path="url(#8c0eaf9cb8)"><g clip-path="url(#038cdafc08)"><path stroke-linecap="butt" transform="matrix(0.75, 0, 0, 0.75, 15.43745, 15.12336)" fill="none" stroke-linejoin="miter" d="M 6.468817 0.00218613 L 51.963612 0.00218613 L 58.432363 17.611563 L 0.0000664543 17.611563 Z M 6.468817 0.00218613 " stroke="#000000" stroke-width="4" stroke-opacity="1" stroke-miterlimit="4"/></g></g><path stroke-linecap="butt" transform="matrix(-0.235338, 0.712121, -0.712121, -0.235338, 25.262429, 16.257004)" fill="none" stroke-linejoin="miter" d="M 0.0016827 0.499611 L 16.007478 0.498009 " stroke="#000000" stroke-width="1" stroke-opacity="1" stroke-miterlimit="4"/><path stroke-linecap="butt" transform="matrix(-0.194335, 0.724385, -0.724385, -0.194335, 29.579497, 16.234165)" fill="none" stroke-linejoin="miter" d="M -0.000858572 0.498235 L 15.282453 0.501789 " stroke="#000000" stroke-width="1" stroke-opacity="1" stroke-miterlimit="4"/><path stroke-linecap="butt" transform="matrix(-0.12592, 0.739354, -0.739354, -0.12592, 33.681382, 16.201113)" fill="none" stroke-linejoin="miter" d="M -0.00206313 0.499276 L 14.97119 0.501026 " stroke="#000000" stroke-width="1" stroke-opacity="1" stroke-miterlimit="4"/><path stroke-linecap="butt" transform="matrix(0.00900889, 0.749946, -0.749946, 0.00900889, 37.724259, 15.120478)" fill="none" stroke-linejoin="miter" d="M -0.00000334135 0.502173 L 16.553326 0.497884 " stroke="#000000" stroke-width="1" stroke-opacity="1" stroke-miterlimit="4"/><path stroke-linecap="butt" transform="matrix(0.141377, 0.736554, -0.736554, 0.141377, 41.631231, 16.071533)" fill="none" stroke-linejoin="miter" d="M -0.00240029 0.501216 L 15.186834 0.499814 " stroke="#000000" stroke-width="1" stroke-opacity="1" stroke-miterlimit="4"/><path stroke-linecap="butt" transform="matrix(0.194923, 0.724227, -0.724227, 0.194923, 45.658085, 15.858021)" fill="none" stroke-linejoin="miter" d="M 0.00230767 0.499373 L 15.540947 0.501431 " stroke="#000000" stroke-width="1" stroke-opacity="1" stroke-miterlimit="4"/><path stroke-linecap="butt" transform="matrix(0.238589, 0.711038, -0.711038, 0.238589, 50.096229, 16.022069)" fill="none" stroke-linejoin="miter" d="M -0.000306666 0.49782 L 15.732048 0.50284 " stroke="#000000" stroke-width="1" stroke-opacity="1" stroke-miterlimit="4"/><g transform="matrix(1, 0, 0, 1, 1, 25)"><g clip-path="url(#528a65630a)"><g fill="#000000" fill-opacity="1"><g transform="translate(0.527889, 13.44096)"><g><path d="M 2.640625 0.125 C 2.273438 0.125 1.953125 0.0820312 1.671875 0 C 1.398438 -0.0820312 1.175781 -0.195312 1 -0.34375 C 0.820312 -0.488281 0.6875 -0.660156 0.59375 -0.859375 C 0.507812 -1.054688 0.46875 -1.273438 0.46875 -1.515625 C 0.46875 -1.671875 0.5 -1.8125 0.5625 -1.9375 C 0.632812 -2.0625 0.726562 -2.15625 0.84375 -2.21875 C 0.957031 -2.289062 1.097656 -2.328125 1.265625 -2.328125 C 1.285156 -1.972656 1.351562 -1.648438 1.46875 -1.359375 C 1.582031 -1.066406 1.742188 -0.835938 1.953125 -0.671875 C 2.171875 -0.515625 2.429688 -0.4375 2.734375 -0.4375 C 3.171875 -0.4375 3.503906 -0.566406 3.734375 -0.828125 C 3.972656 -1.085938 4.09375 -1.445312 4.09375 -1.90625 C 4.09375 -2.238281 4.035156 -2.507812 3.921875 -2.71875 C 3.804688 -2.9375 3.628906 -3.132812 3.390625 -3.3125 C 3.160156 -3.5 2.847656 -3.6875 2.453125 -3.875 C 2.054688 -4.082031 1.722656 -4.304688 1.453125 -4.546875 C 1.179688 -4.785156 0.976562 -5.0625 0.84375 -5.375 C 0.71875 -5.6875 0.65625 -6.0625 0.65625 -6.5 C 0.65625 -6.925781 0.753906 -7.296875 0.953125 -7.609375 C 1.148438 -7.921875 1.414062 -8.160156 1.75 -8.328125 C 2.082031 -8.503906 2.460938 -8.59375 2.890625 -8.59375 C 3.316406 -8.59375 3.671875 -8.523438 3.953125 -8.390625 C 4.242188 -8.265625 4.460938 -8.097656 4.609375 -7.890625 C 4.765625 -7.691406 4.84375 -7.476562 4.84375 -7.25 C 4.84375 -7 4.769531 -6.8125 4.625 -6.6875 C 4.476562 -6.570312 4.265625 -6.515625 3.984375 -6.515625 C 3.984375 -6.773438 3.941406 -7.019531 3.859375 -7.25 C 3.773438 -7.476562 3.644531 -7.664062 3.46875 -7.8125 C 3.300781 -7.957031 3.078125 -8.03125 2.796875 -8.03125 C 2.421875 -8.03125 2.128906 -7.90625 1.921875 -7.65625 C 1.722656 -7.40625 1.625 -7.066406 1.625 -6.640625 C 1.625 -6.347656 1.671875 -6.09375 1.765625 -5.875 C 1.859375 -5.664062 2.019531 -5.476562 2.25 -5.3125 C 2.476562 -5.144531 2.789062 -4.957031 3.1875 -4.75 C 3.601562 -4.550781 3.953125 -4.335938 4.234375 -4.109375 C 4.515625 -3.878906 4.726562 -3.613281 4.875 -3.3125 C 5.019531 -3.019531 5.09375 -2.660156 5.09375 -2.234375 C 5.09375 -1.722656 4.988281 -1.296875 4.78125 -0.953125 C 4.582031 -0.609375 4.296875 -0.34375 3.921875 -0.15625 C 3.554688 0.03125 3.128906 0.125 2.640625 0.125 Z M 2.640625 0.125 "/></g></g></g><g fill="#000000" fill-opacity="1"><g transform="translate(6.088026, 13.44096)"><g><path d="M 0.375 0 L 0.375 -0.484375 L 0.5625 -0.484375 C 0.71875 -0.484375 0.851562 -0.503906 0.96875 -0.546875 C 1.082031 -0.597656 1.171875 -0.679688 1.234375 -0.796875 C 1.296875 -0.910156 1.328125 -1.085938 1.328125 -1.328125 L 1.328125 -7.1875 C 1.328125 -7.414062 1.289062 -7.585938 1.21875 -7.703125 C 1.15625 -7.816406 1.0625 -7.890625 0.9375 -7.921875 C 0.820312 -7.960938 0.6875 -7.984375 0.53125 -7.984375 L 0.375 -7.984375 L 0.375 -8.484375 L 3.359375 -8.484375 L 3.359375 -7.984375 L 3.203125 -7.984375 C 3.066406 -7.984375 2.9375 -7.960938 2.8125 -7.921875 C 2.695312 -7.890625 2.609375 -7.8125 2.546875 -7.6875 C 2.484375 -7.570312 2.453125 -7.394531 2.453125 -7.15625 L 2.453125 -4.71875 L 5.625 -4.71875 L 5.625 -7.15625 C 5.625 -7.394531 5.59375 -7.570312 5.53125 -7.6875 C 5.476562 -7.8125 5.390625 -7.890625 5.265625 -7.921875 C 5.148438 -7.960938 5.019531 -7.984375 4.875 -7.984375 L 4.71875 -7.984375 L 4.71875 -8.484375 L 7.71875 -8.484375 L 7.71875 -7.984375 L 7.515625 -7.984375 C 7.367188 -7.984375 7.238281 -7.960938 7.125 -7.921875 C 7.007812 -7.890625 6.914062 -7.8125 6.84375 -7.6875 C 6.78125 -7.570312 6.75 -7.394531 6.75 -7.15625 L 6.75 -1.28125 C 6.75 -1.0625 6.78125 -0.894531 6.84375 -0.78125 C 6.914062 -0.664062 7.007812 -0.585938 7.125 -0.546875 C 7.238281 -0.503906 7.367188 -0.484375 7.515625 -0.484375 L 7.71875 -0.484375 L 7.71875 0 L 4.71875 0 L 4.71875 -0.484375 L 4.875 -0.484375 C 5.019531 -0.484375 5.148438 -0.503906 5.265625 -0.546875 C 5.390625 -0.597656 5.476562 -0.679688 5.53125 -0.796875 C 5.59375 -0.921875 5.625 -1.101562 5.625 -1.34375 L 5.625 -4.140625 L 2.453125 -4.140625 L 2.453125 -1.328125 C 2.453125 -1.085938 2.484375 -0.910156 2.546875 -0.796875 C 2.609375 -0.679688 2.695312 -0.597656 2.8125 -0.546875 C 2.9375 -0.503906 3.066406 -0.484375 3.203125 -0.484375 L 3.359375 -0.484375 L 3.359375 0 Z M 0.375 0 "/></g></g></g><g fill="#000000" fill-opacity="1"><g transform="translate(14.178737, 13.44096)"><g><path d="M 0.015625 0 L 0.015625 -0.484375 L 0.1875 -0.484375 C 0.320312 -0.484375 0.429688 -0.503906 0.515625 -0.546875 C 0.597656 -0.597656 0.675781 -0.691406 0.75 -0.828125 C 0.820312 -0.960938 0.894531 -1.15625 0.96875 -1.40625 L 3.203125 -8.484375 L 4.09375 -8.484375 L 6.390625 -1.0625 C 6.429688 -0.90625 6.484375 -0.785156 6.546875 -0.703125 C 6.609375 -0.628906 6.6875 -0.570312 6.78125 -0.53125 C 6.875 -0.5 6.988281 -0.484375 7.125 -0.484375 L 7.234375 -0.484375 L 7.234375 0 L 4.34375 0 L 4.34375 -0.484375 L 4.578125 -0.484375 C 4.785156 -0.484375 4.9375 -0.523438 5.03125 -0.609375 C 5.132812 -0.703125 5.1875 -0.828125 5.1875 -0.984375 C 5.1875 -1.035156 5.179688 -1.09375 5.171875 -1.15625 C 5.160156 -1.226562 5.144531 -1.300781 5.125 -1.375 C 5.113281 -1.457031 5.097656 -1.535156 5.078125 -1.609375 L 4.703125 -2.84375 L 2.078125 -2.84375 L 1.734375 -1.6875 C 1.710938 -1.625 1.691406 -1.550781 1.671875 -1.46875 C 1.660156 -1.394531 1.644531 -1.320312 1.625 -1.25 C 1.613281 -1.175781 1.609375 -1.101562 1.609375 -1.03125 C 1.609375 -0.863281 1.65625 -0.726562 1.75 -0.625 C 1.851562 -0.53125 2.019531 -0.484375 2.25 -0.484375 L 2.515625 -0.484375 L 2.515625 0 Z M 2.28125 -3.4375 L 4.515625 -3.4375 L 3.890625 -5.640625 C 3.816406 -5.878906 3.75 -6.101562 3.6875 -6.3125 C 3.625 -6.519531 3.570312 -6.710938 3.53125 -6.890625 C 3.488281 -7.078125 3.445312 -7.242188 3.40625 -7.390625 C 3.375 -7.242188 3.335938 -7.082031 3.296875 -6.90625 C 3.253906 -6.726562 3.207031 -6.546875 3.15625 -6.359375 C 3.101562 -6.171875 3.039062 -5.972656 2.96875 -5.765625 Z M 2.28125 -3.4375 "/></g></g></g><g fill="#000000" fill-opacity="1"><g transform="translate(21.414043, 13.44096)"><g><path d="M 0.375 0 L 0.375 -0.484375 L 0.5625 -0.484375 C 0.707031 -0.484375 0.835938 -0.503906 0.953125 -0.546875 C 1.066406 -0.585938 1.15625 -0.664062 1.21875 -0.78125 C 1.289062 -0.90625 1.328125 -1.082031 1.328125 -1.3125 L 1.328125 -7.15625 C 1.328125 -7.394531 1.289062 -7.570312 1.21875 -7.6875 C 1.15625 -7.8125 1.0625 -7.890625 0.9375 -7.921875 C 0.820312 -7.960938 0.691406 -7.984375 0.546875 -7.984375 L 0.375 -7.984375 L 0.375 -8.484375 L 3.421875 -8.484375 L 3.421875 -7.984375 L 3.234375 -7.984375 C 3.078125 -7.984375 2.9375 -7.960938 2.8125 -7.921875 C 2.695312 -7.890625 2.609375 -7.816406 2.546875 -7.703125 C 2.484375 -7.585938 2.453125 -7.414062 2.453125 -7.1875 L 2.453125 -0.578125 L 4.4375 -0.578125 C 4.632812 -0.578125 4.796875 -0.625 4.921875 -0.71875 C 5.046875 -0.8125 5.140625 -0.941406 5.203125 -1.109375 C 5.273438 -1.273438 5.320312 -1.457031 5.34375 -1.65625 L 5.453125 -2.546875 L 5.96875 -2.546875 L 5.890625 0 Z M 0.375 0 "/></g></g></g><g fill="#000000" fill-opacity="1"><g transform="translate(27.770185, 13.44096)"><g/></g></g><g fill="#000000" fill-opacity="1"><g transform="translate(30.538372, 13.44096)"><g><path d="M 0.375 0 L 0.375 -0.484375 L 0.53125 -0.484375 C 0.6875 -0.484375 0.820312 -0.503906 0.9375 -0.546875 C 1.0625 -0.585938 1.15625 -0.664062 1.21875 -0.78125 C 1.289062 -0.90625 1.328125 -1.09375 1.328125 -1.34375 L 1.328125 -7.1875 C 1.328125 -7.425781 1.289062 -7.601562 1.21875 -7.71875 C 1.144531 -7.832031 1.050781 -7.90625 0.9375 -7.9375 C 0.820312 -7.96875 0.691406 -7.984375 0.546875 -7.984375 L 0.375 -7.984375 L 0.375 -8.484375 L 3.296875 -8.484375 C 4.171875 -8.484375 4.816406 -8.265625 5.234375 -7.828125 C 5.648438 -7.390625 5.859375 -6.78125 5.859375 -6 C 5.859375 -5.644531 5.804688 -5.304688 5.703125 -4.984375 C 5.609375 -4.660156 5.453125 -4.367188 5.234375 -4.109375 C 5.015625 -3.859375 4.722656 -3.660156 4.359375 -3.515625 C 4.003906 -3.367188 3.570312 -3.296875 3.0625 -3.296875 L 2.453125 -3.296875 L 2.453125 -1.28125 C 2.453125 -1.050781 2.488281 -0.878906 2.5625 -0.765625 C 2.644531 -0.648438 2.742188 -0.570312 2.859375 -0.53125 C 2.984375 -0.5 3.117188 -0.484375 3.265625 -0.484375 L 3.578125 -0.484375 L 3.578125 0 Z M 2.96875 -3.84375 C 3.269531 -3.84375 3.523438 -3.878906 3.734375 -3.953125 C 3.953125 -4.035156 4.128906 -4.160156 4.265625 -4.328125 C 4.398438 -4.492188 4.5 -4.707031 4.5625 -4.96875 C 4.632812 -5.238281 4.671875 -5.566406 4.671875 -5.953125 C 4.671875 -6.617188 4.550781 -7.113281 4.3125 -7.4375 C 4.070312 -7.757812 3.675781 -7.921875 3.125 -7.921875 L 2.453125 -7.921875 L 2.453125 -3.84375 Z M 2.96875 -3.84375 "/></g></g></g><g fill="#000000" fill-opacity="1"><g transform="translate(36.728183, 13.44096)"><g><path d="M 0.375 0 L 0.375 -0.484375 L 0.5625 -0.484375 C 0.71875 -0.484375 0.851562 -0.503906 0.96875 -0.546875 C 1.082031 -0.597656 1.171875 -0.679688 1.234375 -0.796875 C 1.296875 -0.910156 1.328125 -1.085938 1.328125 -1.328125 L 1.328125 -7.1875 C 1.328125 -7.414062 1.289062 -7.585938 1.21875 -7.703125 C 1.15625 -7.816406 1.0625 -7.890625 0.9375 -7.921875 C 0.820312 -7.960938 0.6875 -7.984375 0.53125 -7.984375 L 0.375 -7.984375 L 0.375 -8.484375 L 3.359375 -8.484375 L 3.359375 -7.984375 L 3.203125 -7.984375 C 3.066406 -7.984375 2.9375 -7.960938 2.8125 -7.921875 C 2.695312 -7.890625 2.609375 -7.8125 2.546875 -7.6875 C 2.484375 -7.570312 2.453125 -7.394531 2.453125 -7.15625 L 2.453125 -4.71875 L 5.625 -4.71875 L 5.625 -7.15625 C 5.625 -7.394531 5.59375 -7.570312 5.53125 -7.6875 C 5.476562 -7.8125 5.390625 -7.890625 5.265625 -7.921875 C 5.148438 -7.960938 5.019531 -7.984375 4.875 -7.984375 L 4.71875 -7.984375 L 4.71875 -8.484375 L 7.71875 -8.484375 L 7.71875 -7.984375 L 7.515625 -7.984375 C 7.367188 -7.984375 7.238281 -7.960938 7.125 -7.921875 C 7.007812 -7.890625 6.914062 -7.8125 6.84375 -7.6875 C 6.78125 -7.570312 6.75 -7.394531 6.75 -7.15625 L 6.75 -1.28125 C 6.75 -1.0625 6.78125 -0.894531 6.84375 -0.78125 C 6.914062 -0.664062 7.007812 -0.585938 7.125 -0.546875 C 7.238281 -0.503906 7.367188 -0.484375 7.515625 -0.484375 L 7.71875 -0.484375 L 7.71875 0 L 4.71875 0 L 4.71875 -0.484375 L 4.875 -0.484375 C 5.019531 -0.484375 5.148438 -0.503906 5.265625 -0.546875 C 5.390625 -0.597656 5.476562 -0.679688 5.53125 -0.796875 C 5.59375 -0.921875 5.625 -1.101562 5.625 -1.34375 L 5.625 -4.140625 L 2.453125 -4.140625 L 2.453125 -1.328125 C 2.453125 -1.085938 2.484375 -0.910156 2.546875 -0.796875 C 2.609375 -0.679688 2.695312 -0.597656 2.8125 -0.546875 C 2.9375 -0.503906 3.066406 -0.484375 3.203125 -0.484375 L 3.359375 -0.484375 L 3.359375 0 Z M 0.375 0 "/></g></g></g><g fill="#000000" fill-opacity="1"><g transform="translate(44.818895, 13.44096)"><g><path d="M 1.625 0 L 1.625 -0.484375 L 1.828125 -0.484375 C 1.984375 -0.484375 2.125 -0.503906 2.25 -0.546875 C 2.382812 -0.585938 2.488281 -0.664062 2.5625 -0.78125 C 2.632812 -0.90625 2.671875 -1.082031 2.671875 -1.3125 L 2.671875 -3.59375 L 0.8125 -7.359375 C 0.738281 -7.515625 0.671875 -7.632812 0.609375 -7.71875 C 0.546875 -7.8125 0.472656 -7.878906 0.390625 -7.921875 C 0.304688 -7.960938 0.203125 -7.984375 0.078125 -7.984375 L -0.046875 -7.984375 L -0.046875 -8.484375 L 2.796875 -8.484375 L 2.796875 -7.984375 L 2.5 -7.984375 C 2.3125 -7.984375 2.1875 -7.945312 2.125 -7.875 C 2.0625 -7.800781 2.03125 -7.71875 2.03125 -7.625 C 2.03125 -7.53125 2.050781 -7.421875 2.09375 -7.296875 C 2.132812 -7.179688 2.171875 -7.082031 2.203125 -7 L 2.953125 -5.421875 C 3.078125 -5.191406 3.179688 -4.96875 3.265625 -4.75 C 3.347656 -4.53125 3.421875 -4.328125 3.484375 -4.140625 C 3.546875 -4.296875 3.628906 -4.488281 3.734375 -4.71875 C 3.835938 -4.945312 3.941406 -5.179688 4.046875 -5.421875 L 4.6875 -6.75 C 4.757812 -6.90625 4.8125 -7.046875 4.84375 -7.171875 C 4.882812 -7.304688 4.90625 -7.421875 4.90625 -7.515625 C 4.90625 -7.691406 4.847656 -7.8125 4.734375 -7.875 C 4.617188 -7.945312 4.460938 -7.984375 4.265625 -7.984375 L 4.015625 -7.984375 L 4.015625 -8.484375 L 6.484375 -8.484375 L 6.484375 -7.984375 L 6.375 -7.984375 C 6.269531 -7.984375 6.175781 -7.957031 6.09375 -7.90625 C 6.007812 -7.851562 5.921875 -7.757812 5.828125 -7.625 C 5.742188 -7.488281 5.640625 -7.300781 5.515625 -7.0625 L 3.8125 -3.59375 L 3.8125 -1.359375 C 3.8125 -1.117188 3.847656 -0.9375 3.921875 -0.8125 C 3.992188 -0.6875 4.09375 -0.597656 4.21875 -0.546875 C 4.351562 -0.503906 4.492188 -0.484375 4.640625 -0.484375 L 4.875 -0.484375 L 4.875 0 Z M 1.625 0 "/></g></g></g><g fill="#000000" fill-opacity="1"><g transform="translate(51.270081, 13.44096)"><g><path d="M 3.796875 0.125 C 3.066406 0.125 2.460938 -0.0546875 1.984375 -0.421875 C 1.503906 -0.785156 1.144531 -1.296875 0.90625 -1.953125 C 0.675781 -2.609375 0.5625 -3.378906 0.5625 -4.265625 C 0.5625 -5.140625 0.675781 -5.898438 0.90625 -6.546875 C 1.144531 -7.203125 1.503906 -7.707031 1.984375 -8.0625 C 2.472656 -8.425781 3.082031 -8.609375 3.8125 -8.609375 C 4.5 -8.609375 5.082031 -8.425781 5.5625 -8.0625 C 6.039062 -7.707031 6.40625 -7.203125 6.65625 -6.546875 C 6.90625 -5.890625 7.03125 -5.125 7.03125 -4.25 C 7.03125 -3.375 6.90625 -2.609375 6.65625 -1.953125 C 6.40625 -1.296875 6.039062 -0.785156 5.5625 -0.421875 C 5.082031 -0.0546875 4.492188 0.125 3.796875 0.125 Z M 3.796875 -0.515625 C 4.285156 -0.515625 4.675781 -0.660156 4.96875 -0.953125 C 5.269531 -1.253906 5.484375 -1.679688 5.609375 -2.234375 C 5.742188 -2.796875 5.8125 -3.46875 5.8125 -4.25 C 5.8125 -5.039062 5.742188 -5.710938 5.609375 -6.265625 C 5.484375 -6.816406 5.273438 -7.238281 4.984375 -7.53125 C 4.691406 -7.832031 4.300781 -7.984375 3.8125 -7.984375 C 3.09375 -7.984375 2.578125 -7.65625 2.265625 -7 C 1.953125 -6.34375 1.796875 -5.425781 1.796875 -4.25 C 1.796875 -3.46875 1.863281 -2.796875 2 -2.234375 C 2.132812 -1.679688 2.347656 -1.253906 2.640625 -0.953125 C 2.941406 -0.660156 3.328125 -0.515625 3.796875 -0.515625 Z M 3.796875 -0.515625 "/></g></g></g><g fill="#000000" fill-opacity="1"><g transform="translate(58.873688, 13.44096)"><g><path d="M 0.375 0 L 0.375 -0.484375 L 0.53125 -0.484375 C 0.6875 -0.484375 0.820312 -0.503906 0.9375 -0.546875 C 1.0625 -0.585938 1.15625 -0.660156 1.21875 -0.765625 C 1.289062 -0.878906 1.328125 -1.050781 1.328125 -1.28125 L 1.328125 -7.203125 C 1.328125 -7.429688 1.289062 -7.597656 1.21875 -7.703125 C 1.15625 -7.816406 1.0625 -7.890625 0.9375 -7.921875 C 0.820312 -7.960938 0.695312 -7.984375 0.5625 -7.984375 L 0.375 -7.984375 L 0.375 -8.484375 L 3.359375 -8.484375 L 3.359375 -7.984375 L 3.21875 -7.984375 C 3.070312 -7.984375 2.9375 -7.960938 2.8125 -7.921875 C 2.695312 -7.890625 2.609375 -7.8125 2.546875 -7.6875 C 2.484375 -7.570312 2.453125 -7.394531 2.453125 -7.15625 L 2.453125 -3.6875 L 4.5 -6.609375 C 4.644531 -6.804688 4.757812 -6.976562 4.84375 -7.125 C 4.925781 -7.269531 4.988281 -7.390625 5.03125 -7.484375 C 5.070312 -7.585938 5.09375 -7.675781 5.09375 -7.75 C 5.09375 -7.84375 5.050781 -7.90625 4.96875 -7.9375 C 4.882812 -7.976562 4.753906 -8 4.578125 -8 L 4.578125 -8.484375 L 6.875 -8.484375 L 6.875 -8 C 6.71875 -8 6.566406 -7.957031 6.421875 -7.875 C 6.273438 -7.789062 6.128906 -7.664062 5.984375 -7.5 C 5.835938 -7.332031 5.675781 -7.132812 5.5 -6.90625 L 4.03125 -4.921875 L 6.203125 -1.453125 C 6.328125 -1.242188 6.445312 -1.066406 6.5625 -0.921875 C 6.6875 -0.785156 6.8125 -0.675781 6.9375 -0.59375 C 7.0625 -0.519531 7.179688 -0.484375 7.296875 -0.484375 L 7.328125 -0.484375 L 7.328125 0 L 7.03125 0 C 6.726562 0 6.472656 -0.015625 6.265625 -0.046875 C 6.066406 -0.0859375 5.894531 -0.148438 5.75 -0.234375 C 5.613281 -0.328125 5.484375 -0.445312 5.359375 -0.59375 C 5.242188 -0.75 5.117188 -0.953125 4.984375 -1.203125 L 3.296875 -4.0625 L 2.453125 -3.015625 L 2.453125 -1.3125 C 2.453125 -1.082031 2.484375 -0.90625 2.546875 -0.78125 C 2.617188 -0.664062 2.710938 -0.585938 2.828125 -0.546875 C 2.953125 -0.503906 3.085938 -0.484375 3.234375 -0.484375 L 3.359375 -0.484375 L 3.359375 0 Z M 0.375 0 "/></g></g></g><g clip-path="url(#8c49f5dd8b)"><g fill="#000000" fill-opacity="1"><g transform="translate(66.097113, 13.44096)"><g><path d="M 0.375 0 L 0.375 -0.484375 L 0.5625 -0.484375 C 0.707031 -0.484375 0.835938 -0.503906 0.953125 -0.546875 C 1.066406 -0.585938 1.15625 -0.664062 1.21875 -0.78125 C 1.289062 -0.894531 1.328125 -1.0625 1.328125 -1.28125 L 1.328125 -7.140625 C 1.328125 -7.390625 1.289062 -7.570312 1.21875 -7.6875 C 1.15625 -7.8125 1.066406 -7.890625 0.953125 -7.921875 C 0.835938 -7.960938 0.707031 -7.984375 0.5625 -7.984375 L 0.375 -7.984375 L 0.375 -8.484375 L 5.5625 -8.484375 L 5.609375 -6.40625 L 5.0625 -6.40625 L 5 -6.90625 C 4.988281 -7.082031 4.953125 -7.242188 4.890625 -7.390625 C 4.828125 -7.546875 4.734375 -7.664062 4.609375 -7.75 C 4.484375 -7.84375 4.316406 -7.890625 4.109375 -7.890625 L 2.453125 -7.890625 L 2.453125 -4.71875 L 4.875 -4.71875 L 4.875 -4.15625 L 2.453125 -4.15625 L 2.453125 -0.578125 L 4.359375 -0.578125 C 4.578125 -0.578125 4.75 -0.625 4.875 -0.71875 C 5.007812 -0.8125 5.113281 -0.929688 5.1875 -1.078125 C 5.257812 -1.234375 5.304688 -1.394531 5.328125 -1.5625 L 5.390625 -2.0625 L 5.96875 -2.0625 L 5.890625 0 Z M 0.375 0 "/></g></g></g></g></g></g></svg>